<svg xmlns="http://www.w3.org/2000/svg" width="1920" height="1080"><path d="M159,1314L-195,1299L472,1336Z" fill="#b07281" stroke="#b07281" stroke-width="1.51"/><path d="M169,-263L404,-252L1027,-246Z" fill="#e2cae3" stroke="#e2cae3" stroke-width="1.51"/><path d="M1085,1330L472,1336L1486,1343Z" fill="#a73263" stroke="#a73263" stroke-width="1.51"/><path d="M169,-263L1027,-246L1633,-243Z" fill="#edafd4" stroke="#edafd4" stroke-width="1.51"/><path d="M1027,-246L1320,-212L1633,-243Z" fill="#f398b8" stroke="#f398b8" stroke-width="1.51"/><path d="M1908,1288L1797,1345L2064,1308Z" fill="#800031" stroke="#800031" stroke-width="1.51"/><path d="M2058,646L1984,715L2098,867Z" fill="#af1559" stroke="#af1559" stroke-width="1.51"/><path d="M1984,715L1972,817L2098,867Z" fill="#ae1155" stroke="#ae1155" stroke-width="1.51"/><path d="M2058,646L2098,867L2098,497Z" fill="#ab245d" stroke="#ab245d" stroke-width="1.51"/><path d="M1894,-22L2093,137L2103,-79Z" fill="#b47184" stroke="#b47184" stroke-width="1.51"/><path d="M1982,374L2030,410L2130,285Z" fill="#a65073" stroke="#a65073" stroke-width="1.51"/><path d="M2093,137L1907,197L2130,285Z" fill="#aa5e7b" stroke="#aa5e7b" stroke-width="1.51"/><path d="M2030,410L2098,497L2130,285Z" fill="#a54a6f" stroke="#a54a6f" stroke-width="1.51"/><path d="M2098,497L2098,867L2130,285Z" fill="#a83565" stroke="#a83565" stroke-width="1.51"/><path d="M2103,-79L2093,137L2130,285Z" fill="#a76579" stroke="#a76579" stroke-width="1.51"/><path d="M1906,1177L2064,1308L2135,1170Z" fill="#820033" stroke="#820033" stroke-width="1.51"/><path d="M2067,940L1906,1039L2135,1170Z" fill="#97033d" stroke="#97033d" stroke-width="1.51"/><path d="M1906,1039L1906,1177L2135,1170Z" fill="#92013d" stroke="#92013d" stroke-width="1.51"/><path d="M2098,867L2067,940L2135,1170Z" fill="#99053b" stroke="#99053b" stroke-width="1.51"/><path d="M2130,285L2098,867L2135,1170Z" fill="#a71151" stroke="#a71151" stroke-width="1.51"/><path d="M1907,197L1982,374L2130,285Z" fill="#aa5879" stroke="#aa5879" stroke-width="1.51"/><path d="M1894,-22L1882,100L2093,137Z" fill="#b76e86" stroke="#b76e86" stroke-width="1.51"/><path d="M1900,547L2058,646L2098,497Z" fill="#af356b" stroke="#af356b" stroke-width="1.51"/><path d="M2062,-179L1894,-22L2103,-79Z" fill="#ba7a89" stroke="#ba7a89" stroke-width="1.51"/><path d="M1906,1177L1908,1288L2064,1308Z" fill="#830034" stroke="#830034" stroke-width="1.51"/><path d="M1972,817L2067,940L2098,867Z" fill="#a70c49" stroke="#a70c49" stroke-width="1.51"/><path d="M2030,410L1900,547L2098,497Z" fill="#ae4170" stroke="#ae4170" stroke-width="1.51"/><path d="M1882,100L1907,197L2093,137Z" fill="#b36683" stroke="#b36683" stroke-width="1.51"/><path d="M1942,-220L1894,-22L2062,-179Z" fill="#c07e8e" stroke="#c07e8e" stroke-width="1.51"/><path d="M1972,817L1906,1039L2067,940Z" fill="#aa0947" stroke="#aa0947" stroke-width="1.51"/><path d="M1900,547L1984,715L2058,646Z" fill="#b42b67" stroke="#b42b67" stroke-width="1.51"/><path d="M404,-252L569,-221L1027,-246Z" fill="#dfc1de" stroke="#dfc1de" stroke-width="1.51"/><path d="M1982,374L1900,547L2030,410Z" fill="#b04774" stroke="#b04774" stroke-width="1.51"/><path d="M1633,-243L1779,-168L1942,-220Z" fill="#d3879a" stroke="#d3879a" stroke-width="1.51"/><path d="M1805,-100L1894,-22L1942,-220Z" fill="#c78093" stroke="#c78093" stroke-width="1.51"/><path d="M1816,668L1778,809L1972,817Z" fill="#be1563" stroke="#be1563" stroke-width="1.51"/><path d="M1785,990L1906,1039L1972,817Z" fill="#b0084b" stroke="#b0084b" stroke-width="1.51"/><path d="M1778,809L1785,990L1972,817Z" fill="#b90f57" stroke="#b90f57" stroke-width="1.51"/><path d="M1791,433L1900,547L1982,374Z" fill="#b7487a" stroke="#b7487a" stroke-width="1.51"/><path d="M1907,197L1801,258L1982,374Z" fill="#b45c81" stroke="#b45c81" stroke-width="1.51"/><path d="M1801,258L1791,433L1982,374Z" fill="#b65581" stroke="#b65581" stroke-width="1.51"/><path d="M1816,668L1972,817L1984,715Z" fill="#b91962" stroke="#b91962" stroke-width="1.51"/><path d="M1900,547L1816,668L1984,715Z" fill="#ba2b6c" stroke="#ba2b6c" stroke-width="1.51"/><path d="M1779,-168L1805,-100L1942,-220Z" fill="#cc8396" stroke="#cc8396" stroke-width="1.51"/><path d="M1739,57L1882,100L1894,-22Z" fill="#c3748f" stroke="#c3748f" stroke-width="1.51"/><path d="M1778,561L1816,668L1900,547Z" fill="#c03574" stroke="#c03574" stroke-width="1.51"/><path d="M1791,433L1778,561L1900,547Z" fill="#bf417a" stroke="#bf417a" stroke-width="1.51"/><path d="M1743,1131L1797,1345L1906,1177Z" fill="#95013f" stroke="#95013f" stroke-width="1.51"/><path d="M1743,1131L1906,1177L1906,1039Z" fill="#9e0145" stroke="#9e0145" stroke-width="1.51"/><path d="M1785,990L1743,1131L1906,1039Z" fill="#aa0549" stroke="#aa0549" stroke-width="1.51"/><path d="M1882,100L1801,258L1907,197Z" fill="#ba6688" stroke="#ba6688" stroke-width="1.51"/><path d="M1906,1177L1797,1345L1908,1288Z" fill="#890038" stroke="#890038" stroke-width="1.51"/><path d="M1739,57L1801,258L1882,100Z" fill="#c16c8c" stroke="#c16c8c" stroke-width="1.51"/><path d="M1805,-100L1739,57L1894,-22Z" fill="#c97b93" stroke="#c97b93" stroke-width="1.51"/><path d="M1778,809L1690,1015L1785,990Z" fill="#bd0d52" stroke="#bd0d52" stroke-width="1.51"/><path d="M1690,1015L1743,1131L1785,990Z" fill="#b1074c" stroke="#b1074c" stroke-width="1.51"/><path d="M1687,433L1778,561L1791,433Z" fill="#c4487e" stroke="#c4487e" stroke-width="1.51"/><path d="M1743,1131L1639,1249L1797,1345Z" fill="#9a033f" stroke="#9a033f" stroke-width="1.51"/><path d="M1739,57L1658,256L1801,258Z" fill="#c66a8c" stroke="#c66a8c" stroke-width="1.51"/><path d="M1687,433L1791,433L1801,258Z" fill="#c05683" stroke="#c05683" stroke-width="1.51"/><path d="M1658,256L1687,433L1801,258Z" fill="#c35e88" stroke="#c35e88" stroke-width="1.51"/><path d="M1672,-16L1739,57L1805,-100Z" fill="#cf7d96" stroke="#cf7d96" stroke-width="1.51"/><path d="M1602,674L1778,809L1816,668Z" fill="#cb216c" stroke="#cb216c" stroke-width="1.51"/><path d="M1778,561L1621,583L1816,668Z" fill="#c93676" stroke="#c93676" stroke-width="1.51"/><path d="M1621,583L1602,674L1816,668Z" fill="#cf3174" stroke="#cf3174" stroke-width="1.51"/><path d="M1320,-212L1537,-202L1633,-243Z" fill="#ec92a8" stroke="#ec92a8" stroke-width="1.51"/><path d="M1607,810L1690,1015L1778,809Z" fill="#c6135b" stroke="#c6135b" stroke-width="1.51"/><path d="M1639,1249L1486,1343L1797,1345Z" fill="#98053c" stroke="#98053c" stroke-width="1.51"/><path d="M1779,-168L1672,-16L1805,-100Z" fill="#d28398" stroke="#d28398" stroke-width="1.51"/><path d="M1602,674L1607,810L1778,809Z" fill="#d01a69" stroke="#d01a69" stroke-width="1.51"/><path d="M1027,-246L1166,-210L1320,-212Z" fill="#f29fc4" stroke="#f29fc4" stroke-width="1.51"/><path d="M1687,433L1621,583L1778,561Z" fill="#cb427e" stroke="#cb427e" stroke-width="1.51"/><path d="M1633,-243L1672,-16L1779,-168Z" fill="#d9889b" stroke="#d9889b" stroke-width="1.51"/><path d="M1633,-243L1525,-76L1672,-16Z" fill="#e18a9e" stroke="#e18a9e" stroke-width="1.51"/><path d="M1580,44L1658,256L1739,57Z" fill="#d07392" stroke="#d07392" stroke-width="1.51"/><path d="M1690,1015L1616,1178L1743,1131Z" fill="#ae064b" stroke="#ae064b" stroke-width="1.51"/><path d="M1616,1178L1639,1249L1743,1131Z" fill="#a60546" stroke="#a60546" stroke-width="1.51"/><path d="M1672,-16L1580,44L1739,57Z" fill="#d47c96" stroke="#d47c96" stroke-width="1.51"/><path d="M569,-221L682,-207L1027,-246Z" fill="#e3bada" stroke="#e3bada" stroke-width="1.51"/><path d="M1352,1296L1085,1330L1486,1343Z" fill="#a91252" stroke="#a91252" stroke-width="1.51"/><path d="M1537,-202L1525,-76L1633,-243Z" fill="#e78ea1" stroke="#e78ea1" stroke-width="1.51"/><path d="M1580,44L1465,210L1658,256Z" fill="#d77193" stroke="#d77193" stroke-width="1.51"/><path d="M1500,555L1621,583L1687,433Z" fill="#d44581" stroke="#d44581" stroke-width="1.51"/><path d="M1658,256L1452,429L1687,433Z" fill="#cf5b89" stroke="#cf5b89" stroke-width="1.51"/><path d="M1539,1002L1616,1178L1690,1015Z" fill="#ba0a4f" stroke="#ba0a4f" stroke-width="1.51"/><path d="M1607,810L1539,1002L1690,1015Z" fill="#c91155" stroke="#c91155" stroke-width="1.51"/><path d="M1491,871L1539,1002L1607,810Z" fill="#d2165e" stroke="#d2165e" stroke-width="1.51"/><path d="M1452,429L1500,555L1687,433Z" fill="#d74f86" stroke="#d74f86" stroke-width="1.51"/><path d="M1465,210L1452,429L1658,256Z" fill="#d46691" stroke="#d46691" stroke-width="1.51"/><path d="M1525,-76L1580,44L1672,-16Z" fill="#de839b" stroke="#de839b" stroke-width="1.51"/><path d="M1539,1002L1502,1174L1616,1178Z" fill="#b80b4f" stroke="#b80b4f" stroke-width="1.51"/><path d="M1435,126L1465,210L1580,44Z" fill="#db779b" stroke="#db779b" stroke-width="1.51"/><path d="M1616,1178L1502,1174L1639,1249Z" fill="#ab0747" stroke="#ab0747" stroke-width="1.51"/><path d="M1502,1174L1486,1343L1639,1249Z" fill="#a80845" stroke="#a80845" stroke-width="1.51"/><path d="M1602,674L1449,729L1607,810Z" fill="#db2171" stroke="#db2171" stroke-width="1.51"/><path d="M746,1276L472,1336L1085,1330Z" fill="#a5486f" stroke="#a5486f" stroke-width="1.51"/><path d="M1500,555L1602,674L1621,583Z" fill="#d83a7c" stroke="#d83a7c" stroke-width="1.51"/><path d="M1449,729L1491,871L1607,810Z" fill="#d91d6c" stroke="#d91d6c" stroke-width="1.51"/><path d="M1500,555L1449,729L1602,674Z" fill="#dc337b" stroke="#dc337b" stroke-width="1.51"/><path d="M1525,-76L1435,126L1580,44Z" fill="#e0819e" stroke="#e0819e" stroke-width="1.51"/><path d="M682,-207L896,-213L1027,-246Z" fill="#e8b3d6" stroke="#e8b3d6" stroke-width="1.51"/><path d="M1387,226L1452,429L1465,210Z" fill="#d86999" stroke="#d86999" stroke-width="1.51"/><path d="M1352,1296L1486,1343L1502,1174Z" fill="#a90c4b" stroke="#a90c4b" stroke-width="1.51"/><path d="M1379,-73L1435,126L1525,-76Z" fill="#e586a6" stroke="#e586a6" stroke-width="1.51"/><path d="M1379,-73L1525,-76L1537,-202Z" fill="#e98ea7" stroke="#e98ea7" stroke-width="1.51"/><path d="M1320,-212L1379,-73L1537,-202Z" fill="#ed92ae" stroke="#ed92ae" stroke-width="1.51"/><path d="M1491,871L1302,1004L1539,1002Z" fill="#d2175f" stroke="#d2175f" stroke-width="1.51"/><path d="M1341,1132L1502,1174L1539,1002Z" fill="#be1057" stroke="#be1057" stroke-width="1.51"/><path d="M1302,1004L1341,1132L1539,1002Z" fill="#c8155f" stroke="#c8155f" stroke-width="1.51"/><path d="M1374,553L1449,729L1500,555Z" fill="#de3c86" stroke="#de3c86" stroke-width="1.51"/><path d="M1387,226L1364,421L1452,429Z" fill="#d86399" stroke="#d86399" stroke-width="1.51"/><path d="M1288,873L1302,1004L1491,871Z" fill="#d91d6b" stroke="#d91d6b" stroke-width="1.51"/><path d="M1452,429L1374,553L1500,555Z" fill="#dc4b8e" stroke="#dc4b8e" stroke-width="1.51"/><path d="M1341,1132L1352,1296L1502,1174Z" fill="#b40f56" stroke="#b40f56" stroke-width="1.51"/><path d="M1449,729L1288,873L1491,871Z" fill="#dd2073" stroke="#dd2073" stroke-width="1.51"/><path d="M1374,553L1330,717L1449,729Z" fill="#e13586" stroke="#e13586" stroke-width="1.51"/><path d="M1330,717L1288,873L1449,729Z" fill="#e2247e" stroke="#e2247e" stroke-width="1.51"/><path d="M1379,-73L1326,144L1435,126Z" fill="#e281a9" stroke="#e281a9" stroke-width="1.51"/><path d="M1364,421L1374,553L1452,429Z" fill="#dc5494" stroke="#dc5494" stroke-width="1.51"/><path d="M1435,126L1387,226L1465,210Z" fill="#db739e" stroke="#db739e" stroke-width="1.51"/><path d="M1326,144L1387,226L1435,126Z" fill="#de77a4" stroke="#de77a4" stroke-width="1.51"/><path d="M1136,258L1147,434L1364,421Z" fill="#dd68a9" stroke="#dd68a9" stroke-width="1.51"/><path d="M1364,421L1236,504L1374,553Z" fill="#e0529a" stroke="#e0529a" stroke-width="1.51"/><path d="M1236,504L1330,717L1374,553Z" fill="#e34393" stroke="#e34393" stroke-width="1.51"/><path d="M1320,-212L1216,-75L1379,-73Z" fill="#ee93b8" stroke="#ee93b8" stroke-width="1.51"/><path d="M1193,50L1326,144L1379,-73Z" fill="#e786b2" stroke="#e786b2" stroke-width="1.51"/><path d="M1216,-75L1193,50L1379,-73Z" fill="#ec8eb9" stroke="#ec8eb9" stroke-width="1.51"/><path d="M1136,258L1364,421L1387,226Z" fill="#dc6ca6" stroke="#dc6ca6" stroke-width="1.51"/><path d="M1326,144L1136,258L1387,226Z" fill="#df75ab" stroke="#df75ab" stroke-width="1.51"/><path d="M1140,1262L1085,1330L1352,1296Z" fill="#ad1f5c" stroke="#ad1f5c" stroke-width="1.51"/><path d="M1341,1132L1153,1173L1352,1296Z" fill="#b9145f" stroke="#b9145f" stroke-width="1.51"/><path d="M1236,504L1131,695L1330,717Z" fill="#e64095" stroke="#e64095" stroke-width="1.51"/><path d="M1153,1173L1140,1262L1352,1296Z" fill="#b41d60" stroke="#b41d60" stroke-width="1.51"/><path d="M1147,434L1236,504L1364,421Z" fill="#e15aa2" stroke="#e15aa2" stroke-width="1.51"/><path d="M1131,695L1147,866L1288,873Z" fill="#e33086" stroke="#e33086" stroke-width="1.51"/><path d="M1131,695L1288,873L1330,717Z" fill="#e62a88" stroke="#e62a88" stroke-width="1.51"/><path d="M1302,1004L1153,1173L1341,1132Z" fill="#c61868" stroke="#c61868" stroke-width="1.51"/><path d="M1166,-210L1216,-75L1320,-212Z" fill="#f299bf" stroke="#f299bf" stroke-width="1.51"/><path d="M1139,994L1153,1173L1302,1004Z" fill="#cc256e" stroke="#cc256e" stroke-width="1.51"/><path d="M1193,50L1136,258L1326,144Z" fill="#e17fb3" stroke="#e17fb3" stroke-width="1.51"/><path d="M1288,873L1139,994L1302,1004Z" fill="#da2171" stroke="#da2171" stroke-width="1.51"/><path d="M1147,866L1139,994L1288,873Z" fill="#dd2b79" stroke="#dd2b79" stroke-width="1.51"/><path d="M1069,95L1085,237L1136,258Z" fill="#dd82b9" stroke="#dd82b9" stroke-width="1.51"/><path d="M1069,95L1136,258L1193,50Z" fill="#e086b9" stroke="#e086b9" stroke-width="1.51"/><path d="M1147,434L1059,573L1236,504Z" fill="#e15ba6" stroke="#e15ba6" stroke-width="1.51"/><path d="M1059,573L1131,695L1236,504Z" fill="#e4509f" stroke="#e4509f" stroke-width="1.51"/><path d="M867,1256L746,1276L1085,1330Z" fill="#ab3e6d" stroke="#ab3e6d" stroke-width="1.51"/><path d="M1021,-37L1193,50L1216,-75Z" fill="#e995c0" stroke="#e995c0" stroke-width="1.51"/><path d="M1166,-210L1021,-37L1216,-75Z" fill="#ec9cc4" stroke="#ec9cc4" stroke-width="1.51"/><path d="M1131,695L1035,734L1147,866Z" fill="#e53d91" stroke="#e53d91" stroke-width="1.51"/><path d="M1139,994L1040,1036L1153,1173Z" fill="#ca3073" stroke="#ca3073" stroke-width="1.51"/><path d="M1021,-37L1069,95L1193,50Z" fill="#e492c0" stroke="#e492c0" stroke-width="1.51"/><path d="M1085,237L999,405L1136,258Z" fill="#d97ab5" stroke="#d97ab5" stroke-width="1.51"/><path d="M1136,258L999,405L1147,434Z" fill="#da71b1" stroke="#da71b1" stroke-width="1.51"/><path d="M1035,734L1058,876L1147,866Z" fill="#e13d8b" stroke="#e13d8b" stroke-width="1.51"/><path d="M1058,876L1139,994L1147,866Z" fill="#dc357d" stroke="#dc357d" stroke-width="1.51"/><path d="M1040,1036L1032,1183L1153,1173Z" fill="#c13172" stroke="#c13172" stroke-width="1.51"/><path d="M1027,-246L1021,-37L1166,-210Z" fill="#eda3ca" stroke="#eda3ca" stroke-width="1.51"/><path d="M999,405L1059,573L1147,434Z" fill="#de66ad" stroke="#de66ad" stroke-width="1.51"/><path d="M1032,1183L1140,1262L1153,1173Z" fill="#b82b69" stroke="#b82b69" stroke-width="1.51"/><path d="M1058,876L1040,1036L1139,994Z" fill="#d8377a" stroke="#d8377a" stroke-width="1.51"/><path d="M1059,573L1035,734L1131,695Z" fill="#e44c9c" stroke="#e44c9c" stroke-width="1.51"/><path d="M1032,1183L1085,1330L1140,1262Z" fill="#b12c66" stroke="#b12c66" stroke-width="1.51"/><path d="M602,1284L472,1336L746,1276Z" fill="#a55575" stroke="#a55575" stroke-width="1.51"/><path d="M896,-213L1021,-37L1027,-246Z" fill="#eba8d0" stroke="#eba8d0" stroke-width="1.51"/><path d="M933,1010L1040,1036L1058,876Z" fill="#d63e7d" stroke="#d63e7d" stroke-width="1.51"/><path d="M931,892L933,1010L1058,876Z" fill="#da4384" stroke="#da4384" stroke-width="1.51"/><path d="M920,262L999,405L1085,237Z" fill="#d77fba" stroke="#d77fba" stroke-width="1.51"/><path d="M1069,95L914,144L1085,237Z" fill="#dc8abf" stroke="#dc8abf" stroke-width="1.51"/><path d="M914,144L920,262L1085,237Z" fill="#d988c0" stroke="#d988c0" stroke-width="1.51"/><path d="M1032,1183L867,1256L1085,1330Z" fill="#b0366c" stroke="#b0366c" stroke-width="1.51"/><path d="M874,580L892,735L1035,734Z" fill="#e257a3" stroke="#e257a3" stroke-width="1.51"/><path d="M1035,734L931,892L1058,876Z" fill="#e0448f" stroke="#e0448f" stroke-width="1.51"/><path d="M874,580L1035,734L1059,573Z" fill="#e258a5" stroke="#e258a5" stroke-width="1.51"/><path d="M999,405L874,580L1059,573Z" fill="#df66b0" stroke="#df66b0" stroke-width="1.51"/><path d="M1021,-37L914,144L1069,95Z" fill="#e095c5" stroke="#e095c5" stroke-width="1.51"/><path d="M892,735L931,892L1035,734Z" fill="#e24b98" stroke="#e24b98" stroke-width="1.51"/><path d="M933,1010L1032,1183L1040,1036Z" fill="#c83b79" stroke="#c83b79" stroke-width="1.51"/><path d="M854,-10L914,144L1021,-37Z" fill="#e09dcb" stroke="#e09dcb" stroke-width="1.51"/><path d="M896,-213L854,-10L1021,-37Z" fill="#e6a9d1" stroke="#e6a9d1" stroke-width="1.51"/><path d="M933,1010L836,1108L1032,1183Z" fill="#c4417b" stroke="#c4417b" stroke-width="1.51"/><path d="M920,262L873,340L999,405Z" fill="#d480bc" stroke="#d480bc" stroke-width="1.51"/><path d="M836,1108L867,1256L1032,1183Z" fill="#b84077" stroke="#b84077" stroke-width="1.51"/><path d="M873,340L874,580L999,405Z" fill="#d975b7" stroke="#d975b7" stroke-width="1.51"/><path d="M722,370L780,567L873,340Z" fill="#d481bd" stroke="#d481bd" stroke-width="1.51"/><path d="M873,340L780,567L874,580Z" fill="#d975b7" stroke="#d975b7" stroke-width="1.51"/><path d="M775,-91L854,-10L896,-213Z" fill="#e2afd4" stroke="#e2afd4" stroke-width="1.51"/><path d="M854,-10L778,92L914,144Z" fill="#da9ecb" stroke="#da9ecb" stroke-width="1.51"/><path d="M914,144L722,264L920,262Z" fill="#d490c4" stroke="#d490c4" stroke-width="1.51"/><path d="M892,735L771,826L931,892Z" fill="#de5397" stroke="#de5397" stroke-width="1.51"/><path d="M771,826L766,1026L931,892Z" fill="#d8548b" stroke="#d8548b" stroke-width="1.51"/><path d="M931,892L766,1026L933,1010Z" fill="#d44c83" stroke="#d44c83" stroke-width="1.51"/><path d="M766,1026L836,1108L933,1010Z" fill="#c94c81" stroke="#c94c81" stroke-width="1.51"/><path d="M874,580L756,741L892,735Z" fill="#df60a7" stroke="#df60a7" stroke-width="1.51"/><path d="M778,92L722,264L914,144Z" fill="#d499c9" stroke="#d499c9" stroke-width="1.51"/><path d="M722,264L873,340L920,262Z" fill="#d28bc2" stroke="#d28bc2" stroke-width="1.51"/><path d="M780,567L756,741L874,580Z" fill="#dd69ad" stroke="#dd69ad" stroke-width="1.51"/><path d="M756,741L771,826L892,735Z" fill="#df5ca0" stroke="#df5ca0" stroke-width="1.51"/><path d="M682,-207L775,-91L896,-213Z" fill="#e2b6d8" stroke="#e2b6d8" stroke-width="1.51"/><path d="M-220,-196L1,-216L169,-263Z" fill="#eeeaf4" stroke="#eeeaf4" stroke-width="1.51"/><path d="M718,1126L746,1276L836,1108Z" fill="#b64e7d" stroke="#b64e7d" stroke-width="1.51"/><path d="M836,1108L746,1276L867,1256Z" fill="#b34877" stroke="#b34877" stroke-width="1.51"/><path d="M722,264L722,370L873,340Z" fill="#ce8dc3" stroke="#ce8dc3" stroke-width="1.51"/><path d="M775,-91L778,92L854,-10Z" fill="#dca9d1" stroke="#dca9d1" stroke-width="1.51"/><path d="M766,1026L718,1126L836,1108Z" fill="#c25182" stroke="#c25182" stroke-width="1.51"/><path d="M541,963L766,1026L771,826Z" fill="#d35f8d" stroke="#d35f8d" stroke-width="1.51"/><path d="M599,783L541,963L771,826Z" fill="#d7679a" stroke="#d7679a" stroke-width="1.51"/><path d="M775,-91L556,-24L778,92Z" fill="#d8b1d6" stroke="#d8b1d6" stroke-width="1.51"/><path d="M556,-24L568,81L778,92Z" fill="#d3afd5" stroke="#d3afd5" stroke-width="1.51"/><path d="M568,81L722,264L778,92Z" fill="#d0a3ce" stroke="#d0a3ce" stroke-width="1.51"/><path d="M722,370L539,562L780,567Z" fill="#d481bc" stroke="#d481bc" stroke-width="1.51"/><path d="M559,685L756,741L780,567Z" fill="#db6fae" stroke="#db6fae" stroke-width="1.51"/><path d="M539,562L559,685L780,567Z" fill="#d87ab6" stroke="#d87ab6" stroke-width="1.51"/><path d="M574,363L539,562L722,370Z" fill="#d08dc3" stroke="#d08dc3" stroke-width="1.51"/><path d="M756,741L599,783L771,826Z" fill="#db64a1" stroke="#db64a1" stroke-width="1.51"/><path d="M682,-207L556,-24L775,-91Z" fill="#dabbdb" stroke="#dabbdb" stroke-width="1.51"/><path d="M568,81L622,283L722,264Z" fill="#cda1cd" stroke="#cda1cd" stroke-width="1.51"/><path d="M718,1126L580,1186L746,1276Z" fill="#b1547d" stroke="#b1547d" stroke-width="1.51"/><path d="M580,1186L602,1284L746,1276Z" fill="#aa5579" stroke="#aa5579" stroke-width="1.51"/><path d="M541,963L718,1126L766,1026Z" fill="#c65c87" stroke="#c65c87" stroke-width="1.51"/><path d="M559,685L599,783L756,741Z" fill="#dc6ca9" stroke="#dc6ca9" stroke-width="1.51"/><path d="M622,283L722,370L722,264Z" fill="#cc95c7" stroke="#cc95c7" stroke-width="1.51"/><path d="M569,-221L556,-24L682,-207Z" fill="#dcc1de" stroke="#dcc1de" stroke-width="1.51"/><path d="M541,963L580,1186L718,1126Z" fill="#bf5e87" stroke="#bf5e87" stroke-width="1.51"/><path d="M622,283L574,363L722,370Z" fill="#ca95c7" stroke="#ca95c7" stroke-width="1.51"/><path d="M236,1294L159,1314L472,1336Z" fill="#ac687c" stroke="#ac687c" stroke-width="1.51"/><path d="M449,979L403,1102L541,963Z" fill="#cd6b8f" stroke="#cd6b8f" stroke-width="1.51"/><path d="M443,403L539,562L574,363Z" fill="#d392c5" stroke="#d392c5" stroke-width="1.51"/><path d="M541,963L403,1102L580,1186Z" fill="#c3658a" stroke="#c3658a" stroke-width="1.51"/><path d="M402,226L574,363L622,283Z" fill="#cda0cd" stroke="#cda0cd" stroke-width="1.51"/><path d="M568,81L402,226L622,283Z" fill="#cfa9d1" stroke="#cfa9d1" stroke-width="1.51"/><path d="M390,-75L556,-24L569,-221Z" fill="#dcc5e0" stroke="#dcc5e0" stroke-width="1.51"/><path d="M379,875L541,963L599,783Z" fill="#d96f9c" stroke="#d96f9c" stroke-width="1.51"/><path d="M423,739L379,875L599,783Z" fill="#de75a6" stroke="#de75a6" stroke-width="1.51"/><path d="M580,1186L472,1336L602,1284Z" fill="#aa5a7a" stroke="#aa5a7a" stroke-width="1.51"/><path d="M559,685L423,739L599,783Z" fill="#df74ad" stroke="#df74ad" stroke-width="1.51"/><path d="M443,403L485,575L539,562Z" fill="#d78cc2" stroke="#d78cc2" stroke-width="1.51"/><path d="M379,875L449,979L541,963Z" fill="#d87094" stroke="#d87094" stroke-width="1.51"/><path d="M539,562L485,575L559,685Z" fill="#da80b9" stroke="#da80b9" stroke-width="1.51"/><path d="M404,-252L390,-75L569,-221Z" fill="#e0cce4" stroke="#e0cce4" stroke-width="1.51"/><path d="M402,226L443,403L574,363Z" fill="#cda0cd" stroke="#cda0cd" stroke-width="1.51"/><path d="M403,1102L472,1336L580,1186Z" fill="#b36182" stroke="#b36182" stroke-width="1.51"/><path d="M556,-24L392,41L568,81Z" fill="#d6b9da" stroke="#d6b9da" stroke-width="1.51"/><path d="M392,41L402,226L568,81Z" fill="#d3b4d7" stroke="#d3b4d7" stroke-width="1.51"/><path d="M403,1102L320,1192L472,1336Z" fill="#b56684" stroke="#b56684" stroke-width="1.51"/><path d="M485,575L423,739L559,685Z" fill="#de7db4" stroke="#de7db4" stroke-width="1.51"/><path d="M390,-75L392,41L556,-24Z" fill="#dac1df" stroke="#dac1df" stroke-width="1.51"/><path d="M392,41L331,143L402,226Z" fill="#d4b7d9" stroke="#d4b7d9" stroke-width="1.51"/><path d="M270,726L423,739L485,575Z" fill="#e082b6" stroke="#e082b6" stroke-width="1.51"/><path d="M271,513L270,726L485,575Z" fill="#df8cbf" stroke="#df8cbf" stroke-width="1.51"/><path d="M443,403L271,513L485,575Z" fill="#d993c6" stroke="#d993c6" stroke-width="1.51"/><path d="M303,-187L390,-75L404,-252Z" fill="#e1d0e6" stroke="#e1d0e6" stroke-width="1.51"/><path d="M402,226L300,388L443,403Z" fill="#cfa5cf" stroke="#cfa5cf" stroke-width="1.51"/><path d="M320,1192L236,1294L472,1336Z" fill="#ae677f" stroke="#ae677f" stroke-width="1.51"/><path d="M300,388L271,513L443,403Z" fill="#d69ecc" stroke="#d69ecc" stroke-width="1.51"/><path d="M263,1028L403,1102L449,979Z" fill="#cd7190" stroke="#cd7190" stroke-width="1.51"/><path d="M379,875L263,1028L449,979Z" fill="#d87595" stroke="#d87595" stroke-width="1.51"/><path d="M301,850L379,875L423,739Z" fill="#df7aa7" stroke="#df7aa7" stroke-width="1.51"/><path d="M332,208L300,388L402,226Z" fill="#d1add3" stroke="#d1add3" stroke-width="1.51"/><path d="M331,143L332,208L402,226Z" fill="#d3b4d7" stroke="#d3b4d7" stroke-width="1.51"/><path d="M270,726L301,850L423,739Z" fill="#e37fae" stroke="#e37fae" stroke-width="1.51"/><path d="M301,850L263,1028L379,875Z" fill="#dc7a9b" stroke="#dc7a9b" stroke-width="1.51"/><path d="M390,-75L242,-40L392,41Z" fill="#dcc8e2" stroke="#dcc8e2" stroke-width="1.51"/><path d="M169,-263L303,-187L404,-252Z" fill="#e6d8eb" stroke="#e6d8eb" stroke-width="1.51"/><path d="M263,1028L320,1192L403,1102Z" fill="#c4708e" stroke="#c4708e" stroke-width="1.51"/><path d="M303,-187L242,-40L390,-75Z" fill="#e0d1e6" stroke="#e0d1e6" stroke-width="1.51"/><path d="M242,-40L331,143L392,41Z" fill="#d9c3df" stroke="#d9c3df" stroke-width="1.51"/><path d="M108,586L270,726L271,513Z" fill="#e395c3" stroke="#e395c3" stroke-width="1.51"/><path d="M156,956L263,1028L301,850Z" fill="#de7e9a" stroke="#de7e9a" stroke-width="1.51"/><path d="M263,1028L125,1088L320,1192Z" fill="#c87691" stroke="#c87691" stroke-width="1.51"/><path d="M242,-40L120,93L331,143Z" fill="#dbc7e1" stroke="#dbc7e1" stroke-width="1.51"/><path d="M120,93L162,215L331,143Z" fill="#d9c1de" stroke="#d9c1de" stroke-width="1.51"/><path d="M331,143L162,215L332,208Z" fill="#d5b9da" stroke="#d5b9da" stroke-width="1.51"/><path d="M162,215L300,388L332,208Z" fill="#d4b2d7" stroke="#d4b2d7" stroke-width="1.51"/><path d="M125,1088L236,1294L320,1192Z" fill="#bd738b" stroke="#bd738b" stroke-width="1.51"/><path d="M137,-16L120,93L242,-40Z" fill="#e0d1e7" stroke="#e0d1e7" stroke-width="1.51"/><path d="M108,586L171,740L270,726Z" fill="#e890bd" stroke="#e890bd" stroke-width="1.51"/><path d="M92,390L271,513L300,388Z" fill="#daa6d0" stroke="#daa6d0" stroke-width="1.51"/><path d="M162,215L92,390L300,388Z" fill="#d4b2d6" stroke="#d4b2d6" stroke-width="1.51"/><path d="M159,806L156,956L301,850Z" fill="#e384a5" stroke="#e384a5" stroke-width="1.51"/><path d="M270,726L159,806L301,850Z" fill="#e584ae" stroke="#e584ae" stroke-width="1.51"/><path d="M169,-263L242,-40L303,-187Z" fill="#e5d9eb" stroke="#e5d9eb" stroke-width="1.51"/><path d="M9,1254L-195,1299L159,1314Z" fill="#b87b87" stroke="#b87b87" stroke-width="1.51"/><path d="M125,1088L159,1314L236,1294Z" fill="#ba7489" stroke="#ba7489" stroke-width="1.51"/><path d="M169,-263L137,-16L242,-40Z" fill="#e4daeb" stroke="#e4daeb" stroke-width="1.51"/><path d="M171,740L159,806L270,726Z" fill="#e989b5" stroke="#e989b5" stroke-width="1.51"/><path d="M92,390L108,586L271,513Z" fill="#e0a4ce" stroke="#e0a4ce" stroke-width="1.51"/><path d="M156,956L125,1088L263,1028Z" fill="#d57e97" stroke="#d57e97" stroke-width="1.51"/><path d="M125,1088L13,1185L159,1314Z" fill="#c17b8f" stroke="#c17b8f" stroke-width="1.51"/><path d="M1,-216L137,-16L169,-263Z" fill="#e9e2ef" stroke="#e9e2ef" stroke-width="1.51"/><path d="M92,390L8,510L108,586Z" fill="#e3aad1" stroke="#e3aad1" stroke-width="1.51"/><path d="M1,-216L-69,-96L137,-16Z" fill="#e9e4f0" stroke="#e9e4f0" stroke-width="1.51"/><path d="M-1,799L156,956L159,806Z" fill="#e78bab" stroke="#e78bab" stroke-width="1.51"/><path d="M13,1185L9,1254L159,1314Z" fill="#bb7a8a" stroke="#bb7a8a" stroke-width="1.51"/><path d="M-7,344L92,390L162,215Z" fill="#d9badb" stroke="#d9badb" stroke-width="1.51"/><path d="M38,698L159,806L171,740Z" fill="#ec8fb9" stroke="#ec8fb9" stroke-width="1.51"/><path d="M108,586L38,698L171,740Z" fill="#ea96c1" stroke="#ea96c1" stroke-width="1.51"/><path d="M-61,1033L125,1088L156,956Z" fill="#da859a" stroke="#da859a" stroke-width="1.51"/><path d="M38,698L-1,799L159,806Z" fill="#ee91b8" stroke="#ee91b8" stroke-width="1.51"/><path d="M-70,294L-7,344L162,215Z" fill="#dbc0de" stroke="#dbc0de" stroke-width="1.51"/><path d="M-41,122L-70,294L162,215Z" fill="#ddc7e1" stroke="#ddc7e1" stroke-width="1.51"/><path d="M120,93L-41,122L162,215Z" fill="#ddcae3" stroke="#ddcae3" stroke-width="1.51"/><path d="M-1,799L-61,1033L156,956Z" fill="#e68ca3" stroke="#e68ca3" stroke-width="1.51"/><path d="M-41,122L120,93L137,-16Z" fill="#e0d2e7" stroke="#e0d2e7" stroke-width="1.51"/><path d="M-69,-96L-41,122L137,-16Z" fill="#e5daec" stroke="#e5daec" stroke-width="1.51"/><path d="M-113,886L-61,1033L-1,799Z" fill="#ea90a7" stroke="#ea90a7" stroke-width="1.51"/><path d="M-61,1033L13,1185L125,1088Z" fill="#d08397" stroke="#d08397" stroke-width="1.51"/><path d="M8,510L38,698L108,586Z" fill="#e9a1c9" stroke="#e9a1c9" stroke-width="1.51"/><path d="M-7,344L8,510L92,390Z" fill="#e0b3d7" stroke="#e0b3d7" stroke-width="1.51"/><path d="M-218,702L-1,799L38,698Z" fill="#f198be" stroke="#f198be" stroke-width="1.51"/><path d="M-157,581L-218,702L38,698Z" fill="#f0a0c7" stroke="#f0a0c7" stroke-width="1.51"/><path d="M8,510L-157,581L38,698Z" fill="#eca4cb" stroke="#eca4cb" stroke-width="1.51"/><path d="M-69,-96L-146,-73L-41,122Z" fill="#e8dfee" stroke="#e8dfee" stroke-width="1.51"/><path d="M-146,-73L-169,85L-41,122Z" fill="#e7daeb" stroke="#e7daeb" stroke-width="1.51"/><path d="M-153,185L-70,294L-41,122Z" fill="#e0cbe3" stroke="#e0cbe3" stroke-width="1.51"/><path d="M-7,344L-217,426L8,510Z" fill="#e3b5d8" stroke="#e3b5d8" stroke-width="1.51"/><path d="M-217,426L-157,581L8,510Z" fill="#eaafd4" stroke="#eaafd4" stroke-width="1.51"/><path d="M-206,1193L9,1254L13,1185Z" fill="#c38091" stroke="#c38091" stroke-width="1.51"/><path d="M-61,1033L-206,1193L13,1185Z" fill="#ce8497" stroke="#ce8497" stroke-width="1.51"/><path d="M-70,294L-217,426L-7,344Z" fill="#debddc" stroke="#debddc" stroke-width="1.51"/><path d="M-206,1193L-195,1299L9,1254Z" fill="#c0808d" stroke="#c0808d" stroke-width="1.51"/><path d="M-218,702L-113,886L-1,799Z" fill="#f196b7" stroke="#f196b7" stroke-width="1.51"/><path d="M-220,-196L-69,-96L1,-216Z" fill="#efeaf3" stroke="#efeaf3" stroke-width="1.51"/><path d="M-220,-196L-146,-73L-69,-96Z" fill="#eee9f3" stroke="#eee9f3" stroke-width="1.51"/><path d="M-113,886L-212,949L-61,1033Z" fill="#e990a1" stroke="#e990a1" stroke-width="1.51"/><path d="M-169,85L-153,185L-41,122Z" fill="#e3d2e7" stroke="#e3d2e7" stroke-width="1.51"/><path d="M-212,949L-206,1193L-61,1033Z" fill="#db8b9c" stroke="#db8b9c" stroke-width="1.51"/><path d="M-153,185L-217,426L-70,294Z" fill="#dfc4e0" stroke="#dfc4e0" stroke-width="1.51"/><path d="M-218,702L-212,949L-113,886Z" fill="#f096b1" stroke="#f096b1" stroke-width="1.51"/><path d="M-220,-196L-169,85L-146,-73Z" fill="#ece7f2" stroke="#ece7f2" stroke-width="1.51"/><path d="M-169,85L-217,426L-153,185Z" fill="#e2cbe3" stroke="#e2cbe3" stroke-width="1.51"/><path d="M-217,426L-218,702L-157,581Z" fill="#efabd0" stroke="#efabd0" stroke-width="1.51"/><path d="M-220,-196L-217,426L-169,85Z" fill="#e6d7ea" stroke="#e6d7ea" stroke-width="1.51"/></svg>