<?xml version="1.0" ?><!DOCTYPE svg PUBLIC '-//W3C//DTD SVG 1.1//EN' 'http://www.w3.org/Graphics/SVG/1.1/DTD/svg11.dtd'>
<svg height="60px" id="Layer_1" style="enable-background:new 0 0 60 60;" version="1.1" viewBox="0 0 60 60" width="60px" xml:space="preserve" xmlns="http://www.w3.org/2000/svg" xmlns:xlink="http://www.w3.org/1999/xlink"><style type="text/css">
</style><g><path class="st0" d="M32.184,1v14.657h13.762v9.106H32.184v14.877c0,3.36,0.176,5.516,0.531,6.471   c0.357,0.953,1.016,1.715,1.988,2.288c1.287,0.771,2.75,1.157,4.404,1.157c2.936,0,5.855-0.96,8.758-2.868v9.147   c-2.479,1.171-4.723,1.988-6.732,2.46C39.127,58.766,36.955,59,34.619,59c-2.65,0-4.992-0.334-7.031-1.006   c-2.041-0.67-3.775-1.626-5.215-2.861c-1.439-1.24-2.436-2.56-2.992-3.959c-0.557-1.39-0.832-3.413-0.832-6.064V24.764h-6.414   v-8.209c2.279-0.737,4.236-1.798,5.854-3.179c1.629-1.385,2.932-3.046,3.912-4.982C22.885,6.457,23.562,3.994,23.932,1H32.184z"/></g></svg>